<svg xmlns="http://www.w3.org/2000/svg" width="400" height="400" viewBox="0 0 400 400">
 
    <rect width="400" height="400" fill="white" />


    <rect x="150" y="200" width="100" height="100" fill="brown" stroke="black" stroke-width="2" />


    <polygon points="150,200 250,200 200,150" fill="red" stroke="black" stroke-width="2" />


    <rect x="190" y="250" width="20" height="50" fill="#4c2c00" stroke="black" stroke-width="2" />
    

    <rect x="180" y="300" width="40" height="10" fill="grey" />
    <rect x="175" y="310" width="50" height="5" fill="grey" />

 
    <rect x="160" y="220" width="20" height="20" fill="lightblue" stroke="black" stroke-width="2" />
    <rect x="220" y="220" width="20" height="20" fill="lightblue" stroke="black" stroke-width="2" />


    <circle cx="200" cy="175" r="10" fill="yellow" stroke="black" stroke-width="2" />


    <circle cx="315" cy="93" r="15" fill="yellow" stroke="black"/>
    <circle cx="325" cy="93" r="12" fill="white" />
    

    <polygon points="280,80 284,90 294,90 286,95 290,105 280,98 270,105 274,95 266,90 276,90" 
        fill="yellow" stroke="black" stroke-width="1" />
</svg>
